<?xml version="1.0" encoding="utf-8"?>
<?xml-stylesheet type="text/xsl" href="rss1.xsl"?>
<rss version="2.0" xmlns:atom="http://www.w3.org/2005/Atom" xmlns:content="http://purl.org/rss/1.0/modules/content/" xmlns:dc="http://purl.org/dc/elements/1.1/" xmlns:media="http://search.yahoo.com/mrss/">
<channel>
 <title>Getty</title>
 <link>http://www.gettyimg.com/</link>
 <atom:link href="http://www.gettyimg.com/" rel="self" type="application/rss+xml" />

 
                <item>
                <title><![CDATA[【Requests】[REQ AUD] - EXILED - алые цветы]]></title>
                <link><![CDATA[https://sharemania.us/threads/exiled-%D0%B0%D0%BB%D1%8B%D0%B5-%D1%86%D0%B2%D0%B5%D1%82%D1%8B.235982/]]></link>
                <description><![CDATA[<article>
<blockquote class="messageText SelectQuoteContainer ugc baseHtml">
Highest quality, please It would be great if you upload two versions)<br>
<br>
Version 1:<br>
<span data-s9e-mediaembed="bandcamp" style="display:inline-block;width:100%;max-width:400px"><span style="display:block;overflow:hidden;position:relative;padding-bottom:100%"><iframe allowfullscreen="" loading="lazy" scrolling="no" style="border:0;height:100%;left:0;position:absolute;width:100%" src="//bandcamp.com/EmbeddedPlayer/size=large/minimal=true/track=4106087823"></iframe></span></span><br>
<span data-s9e-mediaembed="spotify" style="display:inline-block;width:100%;max-width:320px"><span style="display:block;overflow:hidden;position:relative;padding-bottom:125%;padding-bottom:calc(100% + 80px)"><iframe allow="encrypted-media" allowfullscreen="" loading="lazy" scrolling="no" src="https://open.spotify.com/embed/track/4R3YwyPruCrQm0kFFZWOh1" style="border:0;height:100%;left:0;position:absolute;width:100%"></iframe></span></span><br>
<br>
Version 2:<br>
<span data-s9e-mediaembed="spotify" style="display:inline-block;width:100%;max-width:320px"><span style="display:block;overflow:hidden;position:relative;padding-bottom:125%;padding-bottom:calc(100% + 80px)"><iframe allow="encrypted-media" allowfullscreen="" loading="lazy" scrolling="no" src="https://open.spotify.com/embed/album/2OMPAOVRV7iBnlb2bQHceK" style="border:0;height:100%;left:0;position:absolute;width:100%"></iframe></span></span><br>
<a href="https://music.apple.com/de/album/алые-цветы-single/1710240730" target="_blank" class="externalLink" rel="nofollow">https://music.apple.com/de/album/алые-цветы-single/1710240730</a>
<div class="messageTextEndMarker">&nbsp;</div>
</blockquote>
</article>]]></description>
                <author><![CDATA[Melanie_98]]></author>
                </item>

                
                <item>
                <title><![CDATA[【Music Videos】AB Logic - The Hitman (1080p 5.1)]]></title>
                <link><![CDATA[https://sharemania.us/threads/ab-logic-the-hitman-1080p-5-1.235983/]]></link>
                <description><![CDATA[<article>
<blockquote class="messageText SelectQuoteContainer ugc baseHtml">
<img src="https://i.ibb.co/QQWmwrv/AB-Logic-The-Hitman-1080p-5-1-mp4-thumbs-2024-01-17-17-11-56.jpg" class="bbCodeImage LbImage" alt="[​IMG]" data-url="https://i.ibb.co/QQWmwrv/AB-Logic-The-Hitman-1080p-5-1-mp4-thumbs-2024-01-17-17-11-56.jpg" style=""> <br>
<br>
<div class="ToggleTriggerAnchor bbCodeSpoilerContainer">
<button type="button" class="button bbCodeSpoilerButton ToggleTrigger Tooltip JsOnly" data-target="> .SpoilerTarget"><span>Spoiler: <span class="SpoilerTitle">MediaInfo</span></span></button>
<div class="SpoilerTarget bbCodeSpoilerText">AB Logic - The Hitman (1080p 5.1).mp4<br>
Format : MPEG-4<br>
Format profile : Base Media / Version 2<br>
Codec ID : mp42 (mp42/mp41)<br>
File size : 299 MiB<br>
Duration : 4 min 2 s<br>
Overall bit rate mode : Variable<br>
Overall bit rate : 10.3 Mb/s<br>
Frame rate : 30.000 FPS<br>
Encoded date : 2024-01-17 19:45:04 UTC<br>
Tagged date : 2024-01-17 19:45:26 UTC<br>
TIM : 00:00:00:00<br>
TSC : 30<br>
TSZ : 1<br>
<br>
Video<br>
ID : 1<br>
Format : AVC<br>
Format/Info : Advanced Video Codec<br>
Format profile : Main@L4.1<br>
Format settings : CABAC / 4 Ref Frames<br>
Format settings, CABAC : Yes<br>
Format settings, Reference : 4 frames<br>
Codec ID : avc1<br>
Codec ID/Info : Advanced Video Coding<br>
Duration : 4 min 2 s<br>
Bit rate : 9 998 kb/s<br>
Width : 1 920 pixels<br>
Height : 1 080 pixels<br>
Display aspect ratio : 16:9<br>
Frame rate mode : Constant<br>
Frame rate : 30.000 FPS<br>
Color space : YUV<br>
Chroma subsampling : 4:2:0<br>
Bit depth : 8 bits<br>
Scan type : Progressive<br>
Bits/(Pixel*Frame) : 0.161<br>
Stream size : 289 MiB (97%)<br>
Language : English<br>
Encoded date : 2024-01-17 19:45:04 UTC<br>
Tagged date : 2024-01-17 19:45:04 UTC<br>
Color range : Limited<br>
Color primaries : BT.709<br>
Transfer characteristics : BT.709<br>
Matrix coefficients : BT.709<br>
Codec configuration box : avcC<br>
<br>
Audio<br>
ID : 2<br>
Format : AAC LC<br>
Format/Info : Advanced Audio Codec Low Complexity<br>
Codec ID : mp4a-40-2<br>
Duration : 4 min 2 s<br>
Source duration : 4 min 2 s<br>
Bit rate mode : Variable<br>
Bit rate : 317 kb/s<br>
Maximum bit rate : 1 020 kb/s<br>
Channel(s) : 6 channels<br>
Channel layout : C L R Ls Rs LFE<br>
Sampling rate : 48.0 kHz<br>
Frame rate : 46.875 FPS (1024 SPF)<br>
Compression mode : Lossy<br>
Stream size : 9.19 MiB (3%)<br>
Source stream size : 9.19 MiB (3%)<br>
Language : English<br>
Encoded date : 2024-01-17 19:45:04 UTC<br>
Tagged date : 2024-01-17 19:45:04 UTC</div>
</div><br>
<div class="bbCodeBlock bbCodeVfcHH HiddenContent">
<div class="attribution type">Hidden Content:</div>
<blockquote>You must reply before you can see the hidden data contained here.</blockquote>
</div>
<div class="messageTextEndMarker">&nbsp;</div>
</blockquote>
</article>]]></description>
                <author><![CDATA[DJ-RoGeRs-BS]]></author>
                </item>

                </channel></rss>